<?xml version="1.0" encoding="UTF-8"?>
<svg xmlns="http://www.w3.org/2000/svg" viewBox="0 0 64 64" width="64" height="64" fill="none">
  <!-- Cloud -->
  <path d="M14 24 Q14 16 22 14 Q24 6 32 6 Q40 6 42 14 Q50 14 50 22 Q50 24 48 24 Z" stroke="#94A3B8" stroke-width="1.5" stroke-linecap="round" stroke-linejoin="round"/>
  <!-- 6 snowflakes scattered, some overlapping -->
  <g stroke="#38BDF8" stroke-width="1.5" stroke-linecap="round">
    <!-- SF1 -->
    <line x1="14" y1="30" x2="14" y2="38"/>
    <line x1="10.1" y1="34" x2="17.9" y2="34"/>
    <line x1="11.3" y1="31" x2="16.7" y2="37"/>
    <!-- SF2 -->
    <line x1="24" y1="32" x2="24" y2="40"/>
    <line x1="20.1" y1="36" x2="27.9" y2="36"/>
    <line x1="21.3" y1="33" x2="26.7" y2="39"/>
    <!-- SF3 -->
    <line x1="34" y1="30" x2="34" y2="38"/>
    <line x1="30.1" y1="34" x2="37.9" y2="34"/>
    <line x1="31.3" y1="31" x2="36.7" y2="37"/>
    <!-- SF4 -->
    <line x1="44" y1="32" x2="44" y2="40"/>
    <line x1="40.1" y1="36" x2="47.9" y2="36"/>
    <line x1="41.3" y1="33" x2="46.7" y2="39"/>
    <!-- SF5 -->
    <line x1="19" y1="44" x2="19" y2="52"/>
    <line x1="15.1" y1="48" x2="22.9" y2="48"/>
    <line x1="16.3" y1="45" x2="21.7" y2="51"/>
    <!-- SF6 -->
    <line x1="38" y1="44" x2="38" y2="52"/>
    <line x1="34.1" y1="48" x2="41.9" y2="48"/>
    <line x1="35.3" y1="45" x2="40.7" y2="51"/>
  </g>
</svg>