<?xml version="1.0" encoding="UTF-8"?>
<svg xmlns="http://www.w3.org/2000/svg" viewBox="0 0 64 64" width="64" height="64" fill="none">
  <!-- Cloud -->
  <path d="M14 28 Q14 20 22 18 Q24 10 32 10 Q40 10 42 18 Q50 18 50 26 Q50 28 48 28 Z" stroke="#94A3B8" stroke-width="1.5" stroke-linecap="round" stroke-linejoin="round"/>
  <!-- Snowflake 1 (left) - 3 intersecting lines at 60 degrees -->
  <g stroke="#38BDF8" stroke-width="1.5" stroke-linecap="round">
    <line x1="18" y1="34" x2="18" y2="44"/>
    <line x1="13.2" y1="39" x2="22.8" y2="39"/>
    <line x1="14.8" y1="35" x2="21.2" y2="43"/>
  </g>
  <!-- Snowflake 2 (center) -->
  <g stroke="#38BDF8" stroke-width="1.5" stroke-linecap="round">
    <line x1="32" y1="36" x2="32" y2="48"/>
    <line x1="26.2" y1="42" x2="37.8" y2="42"/>
    <line x1="28" y1="37.2" x2="36" y2="46.8"/>
  </g>
  <!-- Snowflake 3 (right) -->
  <g stroke="#38BDF8" stroke-width="1.5" stroke-linecap="round">
    <line x1="46" y1="34" x2="46" y2="44"/>
    <line x1="41.2" y1="39" x2="50.8" y2="39"/>
    <line x1="42.8" y1="35" x2="49.2" y2="43"/>
  </g>
</svg>