<?xml version="1.0" encoding="UTF-8"?>
<svg xmlns="http://www.w3.org/2000/svg" viewBox="0 0 64 64" width="64" height="64" fill="none">
  <!-- Cloud at top -->
  <path d="M12 18 Q12 12 18 10 Q20 4 28 4 Q36 4 38 10 Q46 10 46 16 Q46 18 44 18 Z" stroke="#94A3B8" stroke-width="1.5" stroke-linecap="round" stroke-linejoin="round"/>
  <!-- Funnel narrowing downward -->
  <path d="M12 18 Q32 22 48 18" stroke="#94A3B8" stroke-width="1.5" stroke-linecap="round" stroke-linejoin="round"/>
  <path d="M16 26 Q32 30 44 26" stroke="#94A3B8" stroke-width="1.5" stroke-linecap="round" stroke-linejoin="round"/>
  <path d="M20 34 Q32 38 40 34" stroke="#6366F1" stroke-width="1.5" stroke-linecap="round" stroke-linejoin="round"/>
  <path d="M24 42 Q32 46 38 42" stroke="#6366F1" stroke-width="1.5" stroke-linecap="round" stroke-linejoin="round"/>
  <!-- Spiral accent lines -->
  <path d="M28 48 Q30 52 32 48 Q34 44 32 42" stroke="#6366F1" stroke-width="1.5" stroke-linecap="round" stroke-linejoin="round"/>
  <!-- Tip -->
  <line x1="32" y1="48" x2="32" y2="58" stroke="#6366F1" stroke-width="1.5" stroke-linecap="round"/>
</svg>